# xmcd CD database file
#
# Track frame offsets:
#	150
#	22141
#	43483
#	57745
#	78139
#	101102
#	120158
#	137848
#	166804
#
# Disc length: 2443 seconds
#
# Revision: 1
# Processed by: cddbd v1.5.2PL0 Copyright (c) Steve Scherf et al.
# Submitted via: CDex 2.08
#
DISCID=79098909
DTITLE=Ahinama Production - Ahinama Production
DYEAR=2003
DGENRE=Salsa
TTITLE0=Que me pidan regalao - Yumuri
TTITLE1=Se te acabo la rumba - Maraca
TTITLE2=El pregn del chocolate - Isaac Delgado
TTITLE3=Ya no hace falta - Bamboleo
TTITLE4=La Maraca - Arte Mixto
TTITLE5=Acaramelao - Yumuri
TTITLE6=Castigala - Maraca
TTITLE7=La formula - Isaac Delgado
TTITLE8=Soy Guajiro - 3 de la habana
EXTD=YEAR: 2003
EXTT0=
EXTT1=
EXTT2=
EXTT3=
EXTT4=
EXTT5=
EXTT6=
EXTT7=
EXTT8=
PLAYORDER=
